<?xml version="1.0" encoding="UTF-8"?>
<svg width="19px" height="20px" viewBox="0 0 19 20" version="1.1" xmlns="http://www.w3.org/2000/svg" xmlns:xlink="http://www.w3.org/1999/xlink">
    <!-- Generator: Sketch 47.1 (45422) - http://www.bohemiancoding.com/sketch -->
    <title>Icons/Google</title>
    <desc>Created with Sketch.</desc>
    <defs></defs>
    <g id="Page-1" stroke="none" stroke-width="1" fill="none" fill-rule="evenodd">
        <g id="Button/Large---Left-Icon">
            <g id="Icons/Google">
                <g id="logo_googleg_48dp" transform="translate(0.500000, 0.500000)">
                    <path d="M18.375,9.58806818 C18.375,8.92329545 18.3153409,8.28409091 18.2045455,7.67045455 L9.375,7.67045455 L9.375,11.296875 L14.4204545,11.296875 C14.203125,12.46875 13.5426136,13.4616477 12.5497159,14.1264205 L12.5497159,16.4786932 L15.5795455,16.4786932 C17.3522727,14.8465909 18.375,12.4431818 18.375,9.58806818 L18.375,9.58806818 Z" id="Shape" fill="#4285F4"></path>
                    <path d="M9.375,18.75 C11.90625,18.75 14.0284091,17.9105114 15.5795455,16.4786932 L12.5497159,14.1264205 C11.7102273,14.6889205 10.6363636,15.0213068 9.375,15.0213068 C6.93323864,15.0213068 4.86647727,13.3721591 4.12926136,11.15625 L0.997159091,11.15625 L0.997159091,13.5852273 C2.53977273,16.6491477 5.71022727,18.75 9.375,18.75 L9.375,18.75 Z" id="Shape" fill="#34A853"></path>
                    <path d="M4.12926136,11.15625 C3.94176136,10.59375 3.83522727,9.99289773 3.83522727,9.375 C3.83522727,8.75710227 3.94176136,8.15625 4.12926136,7.59375 L4.12926136,5.16477273 L0.997159091,5.16477273 C0.362215909,6.43039773 0,7.86221591 0,9.375 C0,10.8877841 0.362215909,12.3196023 0.997159091,13.5852273 L4.12926136,11.15625 L4.12926136,11.15625 Z" id="Shape" fill="#FBBC05"></path>
                    <path d="M9.375,3.72869318 C10.7514205,3.72869318 11.9872159,4.20170455 12.9588068,5.13068182 L15.6477273,2.44176136 C14.0241477,0.928977273 11.9019886,0 9.375,0 C5.71022727,0 2.53977273,2.10085227 0.997159091,5.16477273 L4.12926136,7.59375 C4.86647727,5.37784091 6.93323864,3.72869318 9.375,3.72869318 L9.375,3.72869318 Z" id="Shape" fill="#EA4335"></path>
                    <polygon id="Shape" points="0 0 18.75 0 18.75 18.75 0 18.75"></polygon>
                </g>
            </g>
        </g>
    </g>
</svg>