<svg width="40" height="40" viewBox="0 0 40 40" fill="none" xmlns="http://www.w3.org/2000/svg">
<mask id="mask0" mask-type="alpha" maskUnits="userSpaceOnUse" x="6" y="6" width="29" height="28">
<path d="M30.9237 10.3748C30.9237 9.68372 30.3556 9.11771 29.6619 9.11771H26.4789C25.782 9.11771 25.2139 9.68372 25.2139 10.3748V13.3831C25.2139 14.0773 25.782 14.6402 26.4789 14.6402H29.6619C30.3556 14.6402 30.9237 14.0773 30.9237 13.3831V10.3748ZM20.0722 14.4963C16.9614 14.4963 14.4377 16.9386 14.4377 19.9468C14.4377 22.9551 16.9614 25.3974 20.0722 25.3974C23.2018 25.3974 25.7255 22.9551 25.7255 19.9468C25.7255 16.9386 23.2018 14.4963 20.0722 14.4963ZM30.9237 17.8486H28.4533C28.6919 18.5959 28.8206 19.4184 28.8206 20.2377C28.8206 24.9033 24.9031 28.6777 20.0722 28.6777C15.2601 28.6777 11.3426 24.9033 11.3426 20.2377C11.3426 19.4184 11.4713 18.5959 11.7099 17.8486H9.12959V29.6627C9.12959 30.2819 9.62556 30.7728 10.2471 30.7728H29.8062C30.4278 30.7728 30.9237 30.2819 30.9237 29.6627V17.8486ZM34.1067 30.4101C34.1067 32.377 32.4807 34 30.5031 34H9.60358C7.62915 34 6 32.377 6 30.4101V9.5899C6 7.62296 7.62915 6 9.60358 6H30.5031C32.4807 6 34.1067 7.62296 34.1067 9.5899V30.4101Z" fill="white"/>
</mask>
<g mask="url(#mask0)">
<path d="M30.9237 10.3748C30.9237 9.68372 30.3556 9.11771 29.6619 9.11771H26.4789C25.782 9.11771 25.2139 9.68372 25.2139 10.3748V13.3831C25.2139 14.0773 25.782 14.6402 26.4789 14.6402H29.6619C30.3556 14.6402 30.9237 14.0773 30.9237 13.3831V10.3748ZM20.0722 14.4963C16.9614 14.4963 14.4377 16.9386 14.4377 19.9468C14.4377 22.9551 16.9614 25.3974 20.0722 25.3974C23.2018 25.3974 25.7255 22.9551 25.7255 19.9468C25.7255 16.9386 23.2018 14.4963 20.0722 14.4963ZM30.9237 17.8486H28.4533C28.6919 18.5959 28.8206 19.4184 28.8206 20.2377C28.8206 24.9033 24.9031 28.6777 20.0722 28.6777C15.2601 28.6777 11.3426 24.9033 11.3426 20.2377C11.3426 19.4184 11.4713 18.5959 11.7099 17.8486H9.12959V29.6627C9.12959 30.2819 9.62556 30.7728 10.2471 30.7728H29.8062C30.4278 30.7728 30.9237 30.2819 30.9237 29.6627V17.8486ZM34.1067 30.4101C34.1067 32.377 32.4807 34 30.5031 34H9.60358C7.62915 34 6 32.377 6 30.4101V9.5899C6 7.62296 7.62915 6 9.60358 6H30.5031C32.4807 6 34.1067 7.62296 34.1067 9.5899V30.4101Z" fill="white"/>
<mask id="mask1" mask-type="alpha" maskUnits="userSpaceOnUse" x="0" y="0" width="40" height="40">
<path d="M40 0H0V40H40V0Z" fill="white"/>
</mask>
<g mask="url(#mask1)">
<path d="M40 0H0V40H40V0Z" fill="black"/>
</g>
</g>
</svg>
