<svg width="40" height="40" viewBox="0 0 40 40" fill="none" xmlns="http://www.w3.org/2000/svg">
<mask id="mask0" mask-type="alpha" maskUnits="userSpaceOnUse" x="3" y="6" width="35" height="28">
<path d="M34.098 12.8065C34.1206 13.1066 34.1206 13.403 34.1206 13.7031C34.1206 22.8114 26.9714 33.3067 13.9105 33.3067C9.88509 33.3067 6.14639 32.1759 3 30.2144C3.57344 30.2767 4.12425 30.2986 4.71656 30.2986C8.03649 30.2986 11.0923 29.2118 13.5333 27.3564C10.4133 27.2906 7.79504 25.3072 6.89338 22.5772C7.33478 22.6394 7.77241 22.6833 8.23267 22.6833C8.87025 22.6833 9.5116 22.5992 10.1039 22.4491C6.84811 21.8087 4.4072 19.0349 4.4072 15.6865V15.6023C5.35414 16.111 6.45575 16.433 7.61773 16.4769C5.70499 15.2401 4.45247 13.1249 4.45247 10.7353C4.45247 9.45816 4.80333 8.28348 5.41827 7.25884C8.91552 11.4416 14.1708 14.1715 20.0675 14.4716C19.9581 13.9593 19.8902 13.425 19.8902 12.8907C19.8902 9.09588 23.0592 6 26.9941 6C29.0389 6 30.8875 6.83435 32.1853 8.17736C33.7886 7.87729 35.3316 7.30276 36.6936 6.51232C36.1654 8.11149 35.0449 9.45816 33.5698 10.3108C34.9997 10.1608 36.3842 9.77653 37.6631 9.24225C36.6936 10.6109 35.4826 11.8258 34.098 12.8065Z" fill="white"/>
</mask>
<g mask="url(#mask0)">
<path d="M34.098 12.8065C34.1206 13.1066 34.1206 13.403 34.1206 13.7031C34.1206 22.8114 26.9714 33.3067 13.9105 33.3067C9.88509 33.3067 6.14639 32.1759 3 30.2144C3.57344 30.2767 4.12425 30.2986 4.71656 30.2986C8.03649 30.2986 11.0923 29.2118 13.5333 27.3564C10.4133 27.2906 7.79504 25.3072 6.89338 22.5772C7.33478 22.6394 7.77241 22.6833 8.23267 22.6833C8.87025 22.6833 9.5116 22.5992 10.1039 22.4491C6.84811 21.8087 4.4072 19.0349 4.4072 15.6865V15.6023C5.35414 16.111 6.45575 16.433 7.61773 16.4769C5.70499 15.2401 4.45247 13.1249 4.45247 10.7353C4.45247 9.45816 4.80333 8.28348 5.41827 7.25884C8.91552 11.4416 14.1708 14.1715 20.0675 14.4716C19.9581 13.9593 19.8902 13.425 19.8902 12.8907C19.8902 9.09588 23.0592 6 26.9941 6C29.0389 6 30.8875 6.83435 32.1853 8.17736C33.7886 7.87729 35.3316 7.30276 36.6936 6.51232C36.1654 8.11149 35.0449 9.45816 33.5698 10.3108C34.9997 10.1608 36.3842 9.77653 37.6631 9.24225C36.6936 10.6109 35.4826 11.8258 34.098 12.8065Z" fill="black"/>
</g>
</svg>
